<mxfile host="app.diagrams.net" modified="2020-10-17T19:38:10.085Z" agent="5.0 (Windows)" etag="W35g2h-UX2QUObFbbHuR" version="13.8.0" type="github">
  <diagram id="t5i5QkcxN5-ZaSmJhJ2y" name="Page-1">
    <mxGraphModel dx="868" dy="479" grid="1" gridSize="10" guides="1" tooltips="1" connect="1" arrows="1" fold="1" page="1" pageScale="1" pageWidth="827" pageHeight="1169" math="0" shadow="0">
      <root>
        <mxCell id="0" />
        <mxCell id="1" parent="0" />
        <mxCell id="1hpyTl7lSzMCZ0TIWofa-1" value="" style="ellipse;whiteSpace=wrap;html=1;aspect=fixed;strokeColor=#FF3333;fillColor=#000000;" parent="1" vertex="1">
          <mxGeometry x="400" y="90" width="29" height="29" as="geometry" />
        </mxCell>
        <mxCell id="1hpyTl7lSzMCZ0TIWofa-4" value="&lt;div&gt;&lt;font style=&quot;font-size: 18px&quot;&gt;Word&lt;/font&gt;&lt;/div&gt;&lt;div&gt;&lt;font style=&quot;font-size: 18px&quot;&gt;Embedding&lt;/font&gt;&lt;br&gt;&lt;/div&gt;" style="rounded=1;whiteSpace=wrap;html=1;strokeColor=#000000;fillColor=#FFFFFF;" parent="1" vertex="1">
          <mxGeometry x="170" y="170" width="120" height="60" as="geometry" />
        </mxCell>
        <mxCell id="1hpyTl7lSzMCZ0TIWofa-5" value="&lt;div&gt;&lt;font style=&quot;font-size: 18px&quot;&gt;Character&lt;/font&gt;&lt;/div&gt;&lt;div&gt;&lt;font style=&quot;font-size: 18px&quot;&gt;Embedding&lt;/font&gt;&lt;br&gt;&lt;/div&gt;" style="rounded=1;whiteSpace=wrap;html=1;strokeColor=#000000;fillColor=#FFFFFF;" parent="1" vertex="1">
          <mxGeometry x="550" y="170" width="120" height="60" as="geometry" />
        </mxCell>
        <mxCell id="1hpyTl7lSzMCZ0TIWofa-8" value="" style="endArrow=none;html=1;fillColor=#3333FF;entryX=0.5;entryY=1;entryDx=0;entryDy=0;" parent="1" target="1hpyTl7lSzMCZ0TIWofa-1" edge="1">
          <mxGeometry width="50" height="50" relative="1" as="geometry">
            <mxPoint x="415" y="140" as="sourcePoint" />
            <mxPoint x="413.5" y="130" as="targetPoint" />
          </mxGeometry>
        </mxCell>
        <mxCell id="1hpyTl7lSzMCZ0TIWofa-9" value="" style="endArrow=none;html=1;fillColor=#3333FF;" parent="1" edge="1">
          <mxGeometry width="50" height="50" relative="1" as="geometry">
            <mxPoint x="230" y="140" as="sourcePoint" />
            <mxPoint x="600" y="140" as="targetPoint" />
          </mxGeometry>
        </mxCell>
        <mxCell id="1hpyTl7lSzMCZ0TIWofa-10" value="" style="endArrow=classic;html=1;fillColor=#3333FF;entryX=0.5;entryY=0;entryDx=0;entryDy=0;entryPerimeter=0;" parent="1" target="1hpyTl7lSzMCZ0TIWofa-4" edge="1">
          <mxGeometry width="50" height="50" relative="1" as="geometry">
            <mxPoint x="230" y="140" as="sourcePoint" />
            <mxPoint x="230" y="160" as="targetPoint" />
          </mxGeometry>
        </mxCell>
        <mxCell id="1hpyTl7lSzMCZ0TIWofa-12" value="" style="endArrow=classic;html=1;fillColor=#3333FF;entryX=0.417;entryY=0.017;entryDx=0;entryDy=0;entryPerimeter=0;" parent="1" target="1hpyTl7lSzMCZ0TIWofa-5" edge="1">
          <mxGeometry width="50" height="50" relative="1" as="geometry">
            <mxPoint x="600" y="140" as="sourcePoint" />
            <mxPoint x="660" y="130" as="targetPoint" />
          </mxGeometry>
        </mxCell>
        <mxCell id="1hpyTl7lSzMCZ0TIWofa-20" style="edgeStyle=orthogonalEdgeStyle;rounded=0;orthogonalLoop=1;jettySize=auto;html=1;fillColor=#3333FF;" parent="1" source="1hpyTl7lSzMCZ0TIWofa-13" target="1hpyTl7lSzMCZ0TIWofa-19" edge="1">
          <mxGeometry relative="1" as="geometry" />
        </mxCell>
        <mxCell id="1hpyTl7lSzMCZ0TIWofa-13" value="" style="ellipse;whiteSpace=wrap;html=1;aspect=fixed;strokeColor=#000000;fillColor=#FFFFFF;" parent="1" vertex="1">
          <mxGeometry x="397" y="280" width="34" height="34" as="geometry" />
        </mxCell>
        <mxCell id="1hpyTl7lSzMCZ0TIWofa-15" value="" style="endArrow=none;html=1;fillColor=#3333FF;exitX=0.5;exitY=1;exitDx=0;exitDy=0;" parent="1" source="1hpyTl7lSzMCZ0TIWofa-4" edge="1">
          <mxGeometry width="50" height="50" relative="1" as="geometry">
            <mxPoint x="200" y="300" as="sourcePoint" />
            <mxPoint x="230" y="300" as="targetPoint" />
          </mxGeometry>
        </mxCell>
        <mxCell id="1hpyTl7lSzMCZ0TIWofa-16" value="" style="endArrow=none;html=1;fillColor=#3333FF;exitX=0.5;exitY=1;exitDx=0;exitDy=0;" parent="1" edge="1">
          <mxGeometry width="50" height="50" relative="1" as="geometry">
            <mxPoint x="600" y="230" as="sourcePoint" />
            <mxPoint x="600" y="300" as="targetPoint" />
          </mxGeometry>
        </mxCell>
        <mxCell id="1hpyTl7lSzMCZ0TIWofa-17" value="" style="endArrow=classic;html=1;fillColor=#3333FF;entryX=0;entryY=0.5;entryDx=0;entryDy=0;" parent="1" target="1hpyTl7lSzMCZ0TIWofa-13" edge="1">
          <mxGeometry width="50" height="50" relative="1" as="geometry">
            <mxPoint x="230" y="300" as="sourcePoint" />
            <mxPoint x="360" y="290" as="targetPoint" />
          </mxGeometry>
        </mxCell>
        <mxCell id="1hpyTl7lSzMCZ0TIWofa-18" value="" style="endArrow=classic;html=1;fillColor=#3333FF;" parent="1" edge="1">
          <mxGeometry width="50" height="50" relative="1" as="geometry">
            <mxPoint x="600" y="296" as="sourcePoint" />
            <mxPoint x="431" y="295.5" as="targetPoint" />
          </mxGeometry>
        </mxCell>
        <mxCell id="1hpyTl7lSzMCZ0TIWofa-22" style="edgeStyle=orthogonalEdgeStyle;rounded=0;orthogonalLoop=1;jettySize=auto;html=1;fillColor=#3333FF;entryX=0.493;entryY=0;entryDx=0;entryDy=0;entryPerimeter=0;" parent="1" target="1hpyTl7lSzMCZ0TIWofa-21" edge="1">
          <mxGeometry relative="1" as="geometry">
            <mxPoint x="414" y="430" as="targetPoint" />
            <mxPoint x="414" y="400" as="sourcePoint" />
          </mxGeometry>
        </mxCell>
        <mxCell id="1hpyTl7lSzMCZ0TIWofa-19" value="&lt;div&gt;&lt;font style=&quot;font-size: 18px&quot;&gt;Concatenate&lt;/font&gt;&lt;/div&gt;" style="rounded=1;whiteSpace=wrap;html=1;strokeColor=#000000;fillColor=#FFFFFF;" parent="1" vertex="1">
          <mxGeometry x="354" y="340" width="120" height="60" as="geometry" />
        </mxCell>
        <mxCell id="1hpyTl7lSzMCZ0TIWofa-21" value="&lt;div&gt;&lt;font style=&quot;font-size: 18px&quot;&gt;Highway&lt;/font&gt;&lt;/div&gt;&lt;div&gt;&lt;font style=&quot;font-size: 18px&quot;&gt;Network&lt;/font&gt;&lt;/div&gt;&lt;div&gt;&lt;font style=&quot;font-size: 18px&quot;&gt;Layer&lt;/font&gt;&lt;br&gt;&lt;/div&gt;" style="rounded=1;whiteSpace=wrap;html=1;strokeColor=#000000;fillColor=#FFFFFF;" parent="1" vertex="1">
          <mxGeometry x="340" y="440" width="150" height="70" as="geometry" />
        </mxCell>
        <mxCell id="1hpyTl7lSzMCZ0TIWofa-31" style="edgeStyle=orthogonalEdgeStyle;rounded=0;orthogonalLoop=1;jettySize=auto;html=1;fillColor=#3333FF;" parent="1" source="1hpyTl7lSzMCZ0TIWofa-23" target="1hpyTl7lSzMCZ0TIWofa-30" edge="1">
          <mxGeometry relative="1" as="geometry" />
        </mxCell>
        <mxCell id="1hpyTl7lSzMCZ0TIWofa-23" value="&lt;div&gt;&lt;font style=&quot;font-size: 18px&quot;&gt;Contexual&lt;/font&gt;&lt;/div&gt;&lt;div&gt;&lt;font style=&quot;font-size: 18px&quot;&gt;Embedding&lt;/font&gt;&lt;br&gt;&lt;/div&gt;" style="rounded=1;whiteSpace=wrap;html=1;strokeColor=#000000;fillColor=#FFFFFF;" parent="1" vertex="1">
          <mxGeometry x="354" y="540" width="120" height="60" as="geometry" />
        </mxCell>
        <mxCell id="1hpyTl7lSzMCZ0TIWofa-29" value="" style="endArrow=classic;html=1;fillColor=#3333FF;exitX=0.5;exitY=1;exitDx=0;exitDy=0;" parent="1" source="1hpyTl7lSzMCZ0TIWofa-21" edge="1">
          <mxGeometry width="50" height="50" relative="1" as="geometry">
            <mxPoint x="380" y="700" as="sourcePoint" />
            <mxPoint x="415" y="540" as="targetPoint" />
          </mxGeometry>
        </mxCell>
        <mxCell id="1hpyTl7lSzMCZ0TIWofa-30" value="" style="ellipse;whiteSpace=wrap;html=1;aspect=fixed;strokeColor=#FF3333;fillColor=#000000;" parent="1" vertex="1">
          <mxGeometry x="400" y="630" width="29" height="29" as="geometry" />
        </mxCell>
        <mxCell id="1hpyTl7lSzMCZ0TIWofa-32" value="Start" style="text;html=1;strokeColor=none;fillColor=none;align=center;verticalAlign=middle;whiteSpace=wrap;rounded=0;" parent="1" vertex="1">
          <mxGeometry x="397" y="70" width="40" height="20" as="geometry" />
        </mxCell>
        <mxCell id="1hpyTl7lSzMCZ0TIWofa-33" value="End" style="text;html=1;strokeColor=none;fillColor=none;align=center;verticalAlign=middle;whiteSpace=wrap;rounded=0;" parent="1" vertex="1">
          <mxGeometry x="395" y="659" width="40" height="20" as="geometry" />
        </mxCell>
      </root>
    </mxGraphModel>
  </diagram>
</mxfile>
